<mxfile host="65bd71144e">
    <diagram id="FlJs9biVHM_OIEgAQD2B" name="Page-1">
        <mxGraphModel dx="2490" dy="774" grid="1" gridSize="10" guides="1" tooltips="1" connect="1" arrows="1" fold="1" page="1" pageScale="1" pageWidth="850" pageHeight="1100" math="0" shadow="0">
            <root>
                <mxCell id="0"/>
                <mxCell id="1" parent="0"/>
                <mxCell id="96" value="" style="rounded=0;whiteSpace=wrap;html=1;" vertex="1" parent="1">
                    <mxGeometry x="40" y="240" width="1210" height="900" as="geometry"/>
                </mxCell>
                <mxCell id="38KTvm5A0aAS51LX1xv1-1" value="VPC" style="points=[[0,0],[0.25,0],[0.5,0],[0.75,0],[1,0],[1,0.25],[1,0.5],[1,0.75],[1,1],[0.75,1],[0.5,1],[0.25,1],[0,1],[0,0.75],[0,0.5],[0,0.25]];outlineConnect=0;gradientColor=none;html=1;whiteSpace=wrap;fontSize=12;fontStyle=0;container=1;pointerEvents=0;collapsible=0;recursiveResize=0;shape=mxgraph.aws4.group;grIcon=mxgraph.aws4.group_vpc;strokeColor=#248814;fillColor=none;verticalAlign=top;align=left;spacingLeft=30;fontColor=#AAB7B8;dashed=0;" parent="1" vertex="1">
                    <mxGeometry x="80" y="280" width="1120" height="820" as="geometry"/>
                </mxCell>
                <mxCell id="38KTvm5A0aAS51LX1xv1-2" value="Availability zone" style="sketch=0;outlineConnect=0;gradientColor=none;html=1;whiteSpace=wrap;fontSize=12;fontStyle=0;shape=mxgraph.aws4.group;grIcon=mxgraph.aws4.group_availability_zone;strokeColor=#545B64;fillColor=none;verticalAlign=top;align=left;spacingLeft=30;fontColor=#545B64;dashed=1;" parent="38KTvm5A0aAS51LX1xv1-1" vertex="1">
                    <mxGeometry x="140" y="40" width="960" height="140" as="geometry"/>
                </mxCell>
                <mxCell id="17" value="Shared NACL" style="shape=mxgraph.ibm.box;prType=subnet;fontStyle=0;verticalAlign=top;align=left;spacingLeft=32;spacingTop=4;fillColor=#f8cecc;rounded=0;whiteSpace=wrap;html=1;strokeColor=#b85450;strokeWidth=1;dashed=0;container=0;spacing=-4;collapsible=0;expand=0;recursiveResize=0;" parent="38KTvm5A0aAS51LX1xv1-1" vertex="1">
                    <mxGeometry x="150" y="70" width="450" height="100" as="geometry"/>
                </mxCell>
                <mxCell id="38KTvm5A0aAS51LX1xv1-6" value="Public Subnet" style="points=[[0,0],[0.25,0],[0.5,0],[0.75,0],[1,0],[1,0.25],[1,0.5],[1,0.75],[1,1],[0.75,1],[0.5,1],[0.25,1],[0,1],[0,0.75],[0,0.5],[0,0.25]];outlineConnect=0;gradientColor=none;html=1;whiteSpace=wrap;fontSize=12;fontStyle=0;container=1;pointerEvents=0;collapsible=0;recursiveResize=0;shape=mxgraph.aws4.group;grIcon=mxgraph.aws4.group_security_group;grStroke=0;strokeColor=#248814;fillColor=#E9F3E6;verticalAlign=top;align=left;spacingLeft=30;fontColor=#248814;dashed=0;shadow=1;" parent="38KTvm5A0aAS51LX1xv1-1" vertex="1">
                    <mxGeometry x="160" y="90" width="200" height="70" as="geometry"/>
                </mxCell>
                <mxCell id="38" value="&lt;font style=&quot;font-size: 10px&quot;&gt;Elastic IP&lt;/font&gt;" style="outlineConnect=0;dashed=0;verticalLabelPosition=bottom;verticalAlign=top;align=center;html=1;shape=mxgraph.aws3.elastic_ip;fillColor=#F58534;gradientColor=none;shadow=1;" parent="38KTvm5A0aAS51LX1xv1-6" vertex="1">
                    <mxGeometry y="40" width="40" height="11" as="geometry"/>
                </mxCell>
                <mxCell id="45" style="edgeStyle=none;html=1;entryX=0;entryY=0.5;entryDx=0;entryDy=0;entryPerimeter=0;fontSize=12;" parent="38KTvm5A0aAS51LX1xv1-1" source="14" target="44" edge="1">
                    <mxGeometry relative="1" as="geometry"/>
                </mxCell>
                <mxCell id="14" value="Internet &lt;br&gt;Gateway" style="outlineConnect=0;dashed=0;verticalLabelPosition=bottom;verticalAlign=top;align=center;html=1;shape=mxgraph.aws3.internet_gateway;fillColor=#F58534;gradientColor=none;" parent="38KTvm5A0aAS51LX1xv1-1" vertex="1">
                    <mxGeometry x="-20" y="380" width="40" height="40" as="geometry"/>
                </mxCell>
                <mxCell id="20" value="Private Subnet - A" style="points=[[0,0],[0.25,0],[0.5,0],[0.75,0],[1,0],[1,0.25],[1,0.5],[1,0.75],[1,1],[0.75,1],[0.5,1],[0.25,1],[0,1],[0,0.75],[0,0.5],[0,0.25]];outlineConnect=0;gradientColor=none;html=1;whiteSpace=wrap;fontSize=12;fontStyle=0;container=1;pointerEvents=0;collapsible=0;recursiveResize=0;shape=mxgraph.aws4.group;grIcon=mxgraph.aws4.group_security_group;grStroke=0;strokeColor=#147EBA;fillColor=#E6F2F8;verticalAlign=top;align=left;spacingLeft=30;fontColor=#147EBA;dashed=0;shadow=1;" parent="38KTvm5A0aAS51LX1xv1-1" vertex="1">
                    <mxGeometry x="400" y="90" width="190" height="70" as="geometry"/>
                </mxCell>
                <mxCell id="87" value="&lt;font style=&quot;font-size: 10px&quot;&gt;Route Table&lt;/font&gt;" style="outlineConnect=0;dashed=0;verticalLabelPosition=bottom;verticalAlign=top;align=center;html=1;shape=mxgraph.aws3.route_table;fillColor=#F58536;gradientColor=none;shadow=1;fontSize=12;" parent="20" vertex="1">
                    <mxGeometry x="150" y="26" width="30" height="25" as="geometry"/>
                </mxCell>
                <mxCell id="38KTvm5A0aAS51LX1xv1-11" value="" style="group" parent="38KTvm5A0aAS51LX1xv1-1" vertex="1" connectable="0">
                    <mxGeometry x="294" y="95" width="60" height="60" as="geometry"/>
                </mxCell>
                <mxCell id="38KTvm5A0aAS51LX1xv1-9" value="&lt;font style=&quot;font-size: 10px;&quot;&gt;NAT Gateway&lt;/font&gt;" style="outlineConnect=0;dashed=0;verticalLabelPosition=bottom;verticalAlign=top;align=center;html=1;shape=mxgraph.aws3.vpc_nat_gateway;fillColor=#F58534;gradientColor=none;" parent="38KTvm5A0aAS51LX1xv1-11" vertex="1">
                    <mxGeometry x="15" width="30" height="30" as="geometry"/>
                </mxCell>
                <mxCell id="37" value="Dedicated NACL" style="shape=mxgraph.ibm.box;prType=subnet;fontStyle=0;verticalAlign=top;align=left;spacingLeft=32;spacingTop=4;fillColor=#f8cecc;rounded=0;whiteSpace=wrap;html=1;strokeColor=#b85450;strokeWidth=1;dashed=0;container=0;spacing=-4;collapsible=0;expand=0;recursiveResize=0;" parent="38KTvm5A0aAS51LX1xv1-1" vertex="1">
                    <mxGeometry x="630" y="70" width="210" height="100" as="geometry"/>
                </mxCell>
                <mxCell id="34" value="Private Subnet - B" style="points=[[0,0],[0.25,0],[0.5,0],[0.75,0],[1,0],[1,0.25],[1,0.5],[1,0.75],[1,1],[0.75,1],[0.5,1],[0.25,1],[0,1],[0,0.75],[0,0.5],[0,0.25]];outlineConnect=0;html=1;whiteSpace=wrap;fontSize=12;fontStyle=0;container=1;pointerEvents=0;collapsible=0;recursiveResize=0;shape=mxgraph.aws4.group;grIcon=mxgraph.aws4.group_security_group;grStroke=0;strokeColor=#6c8ebf;fillColor=#dae8fc;verticalAlign=top;align=left;spacingLeft=30;dashed=0;shadow=1;" parent="38KTvm5A0aAS51LX1xv1-1" vertex="1">
                    <mxGeometry x="640" y="90" width="190" height="70" as="geometry"/>
                </mxCell>
                <mxCell id="40" value="Spare Subnet" style="points=[[0,0],[0.25,0],[0.5,0],[0.75,0],[1,0],[1,0.25],[1,0.5],[1,0.75],[1,1],[0.75,1],[0.5,1],[0.25,1],[0,1],[0,0.75],[0,0.5],[0,0.25]];outlineConnect=0;html=1;whiteSpace=wrap;fontSize=12;fontStyle=0;container=1;pointerEvents=0;collapsible=0;recursiveResize=0;shape=mxgraph.aws4.group;grIcon=mxgraph.aws4.group_security_group;grStroke=0;strokeColor=#d6b656;fillColor=#fff2cc;verticalAlign=top;align=left;spacingLeft=30;dashed=0;shadow=1;" parent="38KTvm5A0aAS51LX1xv1-1" vertex="1">
                    <mxGeometry x="880" y="80" width="200" height="80" as="geometry"/>
                </mxCell>
                <mxCell id="85" style="edgeStyle=orthogonalEdgeStyle;rounded=0;html=1;fontSize=12;exitX=0.5;exitY=0;exitDx=0;exitDy=0;exitPerimeter=0;" parent="38KTvm5A0aAS51LX1xv1-1" source="44" edge="1">
                    <mxGeometry relative="1" as="geometry">
                        <mxPoint x="160" y="125" as="targetPoint"/>
                        <Array as="points">
                            <mxPoint x="100" y="125"/>
                            <mxPoint x="160" y="125"/>
                        </Array>
                    </mxGeometry>
                </mxCell>
                <mxCell id="44" value="Route Table" style="outlineConnect=0;dashed=0;verticalLabelPosition=bottom;verticalAlign=top;align=center;html=1;shape=mxgraph.aws3.route_table;fillColor=#F58536;gradientColor=none;shadow=1;fontSize=12;" parent="38KTvm5A0aAS51LX1xv1-1" vertex="1">
                    <mxGeometry x="80" y="380" width="40" height="40" as="geometry"/>
                </mxCell>
                <mxCell id="47" value="Availability zone" style="sketch=0;outlineConnect=0;gradientColor=none;html=1;whiteSpace=wrap;fontSize=12;fontStyle=0;shape=mxgraph.aws4.group;grIcon=mxgraph.aws4.group_availability_zone;strokeColor=#545B64;fillColor=none;verticalAlign=top;align=left;spacingLeft=30;fontColor=#545B64;dashed=1;" parent="38KTvm5A0aAS51LX1xv1-1" vertex="1">
                    <mxGeometry x="140" y="240" width="960" height="140" as="geometry"/>
                </mxCell>
                <mxCell id="48" value="Shared NACL" style="shape=mxgraph.ibm.box;prType=subnet;fontStyle=0;verticalAlign=top;align=left;spacingLeft=32;spacingTop=4;fillColor=#f8cecc;rounded=0;whiteSpace=wrap;html=1;strokeColor=#b85450;strokeWidth=1;dashed=0;container=0;spacing=-4;collapsible=0;expand=0;recursiveResize=0;" parent="38KTvm5A0aAS51LX1xv1-1" vertex="1">
                    <mxGeometry x="150" y="270" width="450" height="100" as="geometry"/>
                </mxCell>
                <mxCell id="49" value="Public Subnet" style="points=[[0,0],[0.25,0],[0.5,0],[0.75,0],[1,0],[1,0.25],[1,0.5],[1,0.75],[1,1],[0.75,1],[0.5,1],[0.25,1],[0,1],[0,0.75],[0,0.5],[0,0.25]];outlineConnect=0;gradientColor=none;html=1;whiteSpace=wrap;fontSize=12;fontStyle=0;container=1;pointerEvents=0;collapsible=0;recursiveResize=0;shape=mxgraph.aws4.group;grIcon=mxgraph.aws4.group_security_group;grStroke=0;strokeColor=#248814;fillColor=#E9F3E6;verticalAlign=top;align=left;spacingLeft=30;fontColor=#248814;dashed=0;shadow=1;" parent="38KTvm5A0aAS51LX1xv1-1" vertex="1">
                    <mxGeometry x="160" y="290" width="200" height="70" as="geometry"/>
                </mxCell>
                <mxCell id="50" value="&lt;font style=&quot;font-size: 10px&quot;&gt;Elastic IP&lt;/font&gt;" style="outlineConnect=0;dashed=0;verticalLabelPosition=bottom;verticalAlign=top;align=center;html=1;shape=mxgraph.aws3.elastic_ip;fillColor=#F58534;gradientColor=none;shadow=1;" parent="49" vertex="1">
                    <mxGeometry y="40" width="40" height="11" as="geometry"/>
                </mxCell>
                <mxCell id="51" value="Private Subnet - A" style="points=[[0,0],[0.25,0],[0.5,0],[0.75,0],[1,0],[1,0.25],[1,0.5],[1,0.75],[1,1],[0.75,1],[0.5,1],[0.25,1],[0,1],[0,0.75],[0,0.5],[0,0.25]];outlineConnect=0;gradientColor=none;html=1;whiteSpace=wrap;fontSize=12;fontStyle=0;container=1;pointerEvents=0;collapsible=0;recursiveResize=0;shape=mxgraph.aws4.group;grIcon=mxgraph.aws4.group_security_group;grStroke=0;strokeColor=#147EBA;fillColor=#E6F2F8;verticalAlign=top;align=left;spacingLeft=30;fontColor=#147EBA;dashed=0;shadow=1;" parent="38KTvm5A0aAS51LX1xv1-1" vertex="1">
                    <mxGeometry x="400" y="290" width="190" height="70" as="geometry"/>
                </mxCell>
                <mxCell id="86" value="&lt;font style=&quot;font-size: 10px&quot;&gt;Route Table&lt;/font&gt;" style="outlineConnect=0;dashed=0;verticalLabelPosition=bottom;verticalAlign=top;align=center;html=1;shape=mxgraph.aws3.route_table;fillColor=#F58536;gradientColor=none;shadow=1;fontSize=12;" parent="51" vertex="1">
                    <mxGeometry x="150" y="26" width="30" height="25" as="geometry"/>
                </mxCell>
                <mxCell id="52" value="" style="group" parent="38KTvm5A0aAS51LX1xv1-1" vertex="1" connectable="0">
                    <mxGeometry x="294" y="295" width="60" height="60" as="geometry"/>
                </mxCell>
                <mxCell id="53" value="&lt;font style=&quot;font-size: 10px;&quot;&gt;NAT Gateway&lt;/font&gt;" style="outlineConnect=0;dashed=0;verticalLabelPosition=bottom;verticalAlign=top;align=center;html=1;shape=mxgraph.aws3.vpc_nat_gateway;fillColor=#F58534;gradientColor=none;" parent="52" vertex="1">
                    <mxGeometry x="15" width="30" height="30" as="geometry"/>
                </mxCell>
                <mxCell id="54" value="Dedicated NACL" style="shape=mxgraph.ibm.box;prType=subnet;fontStyle=0;verticalAlign=top;align=left;spacingLeft=32;spacingTop=4;fillColor=#f8cecc;rounded=0;whiteSpace=wrap;html=1;strokeColor=#b85450;strokeWidth=1;dashed=0;container=0;spacing=-4;collapsible=0;expand=0;recursiveResize=0;" parent="38KTvm5A0aAS51LX1xv1-1" vertex="1">
                    <mxGeometry x="630" y="270" width="210" height="100" as="geometry"/>
                </mxCell>
                <mxCell id="55" value="Private Subnet - B" style="points=[[0,0],[0.25,0],[0.5,0],[0.75,0],[1,0],[1,0.25],[1,0.5],[1,0.75],[1,1],[0.75,1],[0.5,1],[0.25,1],[0,1],[0,0.75],[0,0.5],[0,0.25]];outlineConnect=0;html=1;whiteSpace=wrap;fontSize=12;fontStyle=0;container=1;pointerEvents=0;collapsible=0;recursiveResize=0;shape=mxgraph.aws4.group;grIcon=mxgraph.aws4.group_security_group;grStroke=0;strokeColor=#6c8ebf;fillColor=#dae8fc;verticalAlign=top;align=left;spacingLeft=30;dashed=0;shadow=1;" parent="38KTvm5A0aAS51LX1xv1-1" vertex="1">
                    <mxGeometry x="640" y="290" width="190" height="70" as="geometry"/>
                </mxCell>
                <mxCell id="56" value="Spare Subnet" style="points=[[0,0],[0.25,0],[0.5,0],[0.75,0],[1,0],[1,0.25],[1,0.5],[1,0.75],[1,1],[0.75,1],[0.5,1],[0.25,1],[0,1],[0,0.75],[0,0.5],[0,0.25]];outlineConnect=0;html=1;whiteSpace=wrap;fontSize=12;fontStyle=0;container=1;pointerEvents=0;collapsible=0;recursiveResize=0;shape=mxgraph.aws4.group;grIcon=mxgraph.aws4.group_security_group;grStroke=0;strokeColor=#d6b656;fillColor=#fff2cc;verticalAlign=top;align=left;spacingLeft=30;dashed=0;shadow=1;" parent="38KTvm5A0aAS51LX1xv1-1" vertex="1">
                    <mxGeometry x="880" y="280" width="200" height="80" as="geometry"/>
                </mxCell>
                <mxCell id="57" value="Availability zone" style="sketch=0;outlineConnect=0;gradientColor=none;html=1;whiteSpace=wrap;fontSize=12;fontStyle=0;shape=mxgraph.aws4.group;grIcon=mxgraph.aws4.group_availability_zone;strokeColor=#545B64;fillColor=none;verticalAlign=top;align=left;spacingLeft=30;fontColor=#545B64;dashed=1;" parent="38KTvm5A0aAS51LX1xv1-1" vertex="1">
                    <mxGeometry x="140" y="440" width="960" height="140" as="geometry"/>
                </mxCell>
                <mxCell id="58" value="Shared NACL" style="shape=mxgraph.ibm.box;prType=subnet;fontStyle=0;verticalAlign=top;align=left;spacingLeft=32;spacingTop=4;fillColor=#f8cecc;rounded=0;whiteSpace=wrap;html=1;strokeColor=#b85450;strokeWidth=1;dashed=0;container=0;spacing=-4;collapsible=0;expand=0;recursiveResize=0;" parent="38KTvm5A0aAS51LX1xv1-1" vertex="1">
                    <mxGeometry x="150" y="470" width="450" height="100" as="geometry"/>
                </mxCell>
                <mxCell id="59" value="Public Subnet" style="points=[[0,0],[0.25,0],[0.5,0],[0.75,0],[1,0],[1,0.25],[1,0.5],[1,0.75],[1,1],[0.75,1],[0.5,1],[0.25,1],[0,1],[0,0.75],[0,0.5],[0,0.25]];outlineConnect=0;gradientColor=none;html=1;whiteSpace=wrap;fontSize=12;fontStyle=0;container=1;pointerEvents=0;collapsible=0;recursiveResize=0;shape=mxgraph.aws4.group;grIcon=mxgraph.aws4.group_security_group;grStroke=0;strokeColor=#248814;fillColor=#E9F3E6;verticalAlign=top;align=left;spacingLeft=30;fontColor=#248814;dashed=0;shadow=1;" parent="38KTvm5A0aAS51LX1xv1-1" vertex="1">
                    <mxGeometry x="160" y="490" width="200" height="70" as="geometry"/>
                </mxCell>
                <mxCell id="60" value="&lt;font style=&quot;font-size: 10px&quot;&gt;Elastic IP&lt;/font&gt;" style="outlineConnect=0;dashed=0;verticalLabelPosition=bottom;verticalAlign=top;align=center;html=1;shape=mxgraph.aws3.elastic_ip;fillColor=#F58534;gradientColor=none;shadow=1;" parent="59" vertex="1">
                    <mxGeometry y="40" width="40" height="11" as="geometry"/>
                </mxCell>
                <mxCell id="61" value="Private Subnet - A" style="points=[[0,0],[0.25,0],[0.5,0],[0.75,0],[1,0],[1,0.25],[1,0.5],[1,0.75],[1,1],[0.75,1],[0.5,1],[0.25,1],[0,1],[0,0.75],[0,0.5],[0,0.25]];outlineConnect=0;gradientColor=none;html=1;whiteSpace=wrap;fontSize=12;fontStyle=0;container=1;pointerEvents=0;collapsible=0;recursiveResize=0;shape=mxgraph.aws4.group;grIcon=mxgraph.aws4.group_security_group;grStroke=0;strokeColor=#147EBA;fillColor=#E6F2F8;verticalAlign=top;align=left;spacingLeft=30;fontColor=#147EBA;dashed=0;shadow=1;" parent="38KTvm5A0aAS51LX1xv1-1" vertex="1">
                    <mxGeometry x="400" y="490" width="190" height="70" as="geometry"/>
                </mxCell>
                <mxCell id="89" value="&lt;font style=&quot;font-size: 10px&quot;&gt;Route Table&lt;/font&gt;" style="outlineConnect=0;dashed=0;verticalLabelPosition=bottom;verticalAlign=top;align=center;html=1;shape=mxgraph.aws3.route_table;fillColor=#F58536;gradientColor=none;shadow=1;fontSize=12;" parent="61" vertex="1">
                    <mxGeometry x="150" y="26" width="30" height="25" as="geometry"/>
                </mxCell>
                <mxCell id="62" value="" style="group" parent="38KTvm5A0aAS51LX1xv1-1" vertex="1" connectable="0">
                    <mxGeometry x="294" y="495" width="60" height="60" as="geometry"/>
                </mxCell>
                <mxCell id="63" value="&lt;font style=&quot;font-size: 10px;&quot;&gt;NAT Gateway&lt;/font&gt;" style="outlineConnect=0;dashed=0;verticalLabelPosition=bottom;verticalAlign=top;align=center;html=1;shape=mxgraph.aws3.vpc_nat_gateway;fillColor=#F58534;gradientColor=none;" parent="62" vertex="1">
                    <mxGeometry x="15" width="30" height="30" as="geometry"/>
                </mxCell>
                <mxCell id="64" value="Dedicated NACL" style="shape=mxgraph.ibm.box;prType=subnet;fontStyle=0;verticalAlign=top;align=left;spacingLeft=32;spacingTop=4;fillColor=#f8cecc;rounded=0;whiteSpace=wrap;html=1;strokeColor=#b85450;strokeWidth=1;dashed=0;container=0;spacing=-4;collapsible=0;expand=0;recursiveResize=0;" parent="38KTvm5A0aAS51LX1xv1-1" vertex="1">
                    <mxGeometry x="630" y="470" width="210" height="100" as="geometry"/>
                </mxCell>
                <mxCell id="65" value="Private Subnet - B" style="points=[[0,0],[0.25,0],[0.5,0],[0.75,0],[1,0],[1,0.25],[1,0.5],[1,0.75],[1,1],[0.75,1],[0.5,1],[0.25,1],[0,1],[0,0.75],[0,0.5],[0,0.25]];outlineConnect=0;html=1;whiteSpace=wrap;fontSize=12;fontStyle=0;container=1;pointerEvents=0;collapsible=0;recursiveResize=0;shape=mxgraph.aws4.group;grIcon=mxgraph.aws4.group_security_group;grStroke=0;strokeColor=#6c8ebf;fillColor=#dae8fc;verticalAlign=top;align=left;spacingLeft=30;dashed=0;shadow=1;" parent="38KTvm5A0aAS51LX1xv1-1" vertex="1">
                    <mxGeometry x="640" y="490" width="190" height="70" as="geometry"/>
                </mxCell>
                <mxCell id="66" value="Spare Subnet" style="points=[[0,0],[0.25,0],[0.5,0],[0.75,0],[1,0],[1,0.25],[1,0.5],[1,0.75],[1,1],[0.75,1],[0.5,1],[0.25,1],[0,1],[0,0.75],[0,0.5],[0,0.25]];outlineConnect=0;html=1;whiteSpace=wrap;fontSize=12;fontStyle=0;container=1;pointerEvents=0;collapsible=0;recursiveResize=0;shape=mxgraph.aws4.group;grIcon=mxgraph.aws4.group_security_group;grStroke=0;strokeColor=#d6b656;fillColor=#fff2cc;verticalAlign=top;align=left;spacingLeft=30;dashed=0;shadow=1;" parent="38KTvm5A0aAS51LX1xv1-1" vertex="1">
                    <mxGeometry x="880" y="480" width="200" height="80" as="geometry"/>
                </mxCell>
                <mxCell id="67" value="Availability zone" style="sketch=0;outlineConnect=0;gradientColor=none;html=1;whiteSpace=wrap;fontSize=12;fontStyle=0;shape=mxgraph.aws4.group;grIcon=mxgraph.aws4.group_availability_zone;strokeColor=#545B64;fillColor=none;verticalAlign=top;align=left;spacingLeft=30;fontColor=#545B64;dashed=1;" parent="38KTvm5A0aAS51LX1xv1-1" vertex="1">
                    <mxGeometry x="140" y="640" width="960" height="140" as="geometry"/>
                </mxCell>
                <mxCell id="68" value="Shared NACL" style="shape=mxgraph.ibm.box;prType=subnet;fontStyle=0;verticalAlign=top;align=left;spacingLeft=32;spacingTop=4;fillColor=#f8cecc;rounded=0;whiteSpace=wrap;html=1;strokeColor=#b85450;strokeWidth=1;dashed=0;container=0;spacing=-4;collapsible=0;expand=0;recursiveResize=0;" parent="38KTvm5A0aAS51LX1xv1-1" vertex="1">
                    <mxGeometry x="150" y="670" width="450" height="100" as="geometry"/>
                </mxCell>
                <mxCell id="69" value="Public Subnet" style="points=[[0,0],[0.25,0],[0.5,0],[0.75,0],[1,0],[1,0.25],[1,0.5],[1,0.75],[1,1],[0.75,1],[0.5,1],[0.25,1],[0,1],[0,0.75],[0,0.5],[0,0.25]];outlineConnect=0;gradientColor=none;html=1;whiteSpace=wrap;fontSize=12;fontStyle=0;container=1;pointerEvents=0;collapsible=0;recursiveResize=0;shape=mxgraph.aws4.group;grIcon=mxgraph.aws4.group_security_group;grStroke=0;strokeColor=#248814;fillColor=#E9F3E6;verticalAlign=top;align=left;spacingLeft=30;fontColor=#248814;dashed=0;shadow=1;" parent="38KTvm5A0aAS51LX1xv1-1" vertex="1">
                    <mxGeometry x="160" y="690" width="200" height="70" as="geometry"/>
                </mxCell>
                <mxCell id="70" value="&lt;font style=&quot;font-size: 10px&quot;&gt;Elastic IP&lt;/font&gt;" style="outlineConnect=0;dashed=0;verticalLabelPosition=bottom;verticalAlign=top;align=center;html=1;shape=mxgraph.aws3.elastic_ip;fillColor=#F58534;gradientColor=none;shadow=1;" parent="69" vertex="1">
                    <mxGeometry y="40" width="40" height="11" as="geometry"/>
                </mxCell>
                <mxCell id="71" value="Private Subnet - A" style="points=[[0,0],[0.25,0],[0.5,0],[0.75,0],[1,0],[1,0.25],[1,0.5],[1,0.75],[1,1],[0.75,1],[0.5,1],[0.25,1],[0,1],[0,0.75],[0,0.5],[0,0.25]];outlineConnect=0;gradientColor=none;html=1;whiteSpace=wrap;fontSize=12;fontStyle=0;container=1;pointerEvents=0;collapsible=0;recursiveResize=0;shape=mxgraph.aws4.group;grIcon=mxgraph.aws4.group_security_group;grStroke=0;strokeColor=#147EBA;fillColor=#E6F2F8;verticalAlign=top;align=left;spacingLeft=30;fontColor=#147EBA;dashed=0;shadow=1;" parent="38KTvm5A0aAS51LX1xv1-1" vertex="1">
                    <mxGeometry x="400" y="690" width="190" height="70" as="geometry"/>
                </mxCell>
                <mxCell id="88" value="&lt;font style=&quot;font-size: 10px&quot;&gt;Route Table&lt;/font&gt;" style="outlineConnect=0;dashed=0;verticalLabelPosition=bottom;verticalAlign=top;align=center;html=1;shape=mxgraph.aws3.route_table;fillColor=#F58536;gradientColor=none;shadow=1;fontSize=12;" parent="71" vertex="1">
                    <mxGeometry x="150" y="26" width="30" height="25" as="geometry"/>
                </mxCell>
                <mxCell id="72" value="" style="group" parent="38KTvm5A0aAS51LX1xv1-1" vertex="1" connectable="0">
                    <mxGeometry x="294" y="695" width="60" height="60" as="geometry"/>
                </mxCell>
                <mxCell id="73" value="&lt;font style=&quot;font-size: 10px;&quot;&gt;NAT Gateway&lt;/font&gt;" style="outlineConnect=0;dashed=0;verticalLabelPosition=bottom;verticalAlign=top;align=center;html=1;shape=mxgraph.aws3.vpc_nat_gateway;fillColor=#F58534;gradientColor=none;" parent="72" vertex="1">
                    <mxGeometry x="15" width="30" height="30" as="geometry"/>
                </mxCell>
                <mxCell id="74" value="Dedicated NACL" style="shape=mxgraph.ibm.box;prType=subnet;fontStyle=0;verticalAlign=top;align=left;spacingLeft=32;spacingTop=4;fillColor=#f8cecc;rounded=0;whiteSpace=wrap;html=1;strokeColor=#b85450;strokeWidth=1;dashed=0;container=0;spacing=-4;collapsible=0;expand=0;recursiveResize=0;" parent="38KTvm5A0aAS51LX1xv1-1" vertex="1">
                    <mxGeometry x="630" y="670" width="210" height="100" as="geometry"/>
                </mxCell>
                <mxCell id="75" value="Private Subnet - B" style="points=[[0,0],[0.25,0],[0.5,0],[0.75,0],[1,0],[1,0.25],[1,0.5],[1,0.75],[1,1],[0.75,1],[0.5,1],[0.25,1],[0,1],[0,0.75],[0,0.5],[0,0.25]];outlineConnect=0;html=1;whiteSpace=wrap;fontSize=12;fontStyle=0;container=1;pointerEvents=0;collapsible=0;recursiveResize=0;shape=mxgraph.aws4.group;grIcon=mxgraph.aws4.group_security_group;grStroke=0;strokeColor=#6c8ebf;fillColor=#dae8fc;verticalAlign=top;align=left;spacingLeft=30;dashed=0;shadow=1;" parent="38KTvm5A0aAS51LX1xv1-1" vertex="1">
                    <mxGeometry x="640" y="690" width="190" height="70" as="geometry"/>
                </mxCell>
                <mxCell id="76" value="Spare Subnet" style="points=[[0,0],[0.25,0],[0.5,0],[0.75,0],[1,0],[1,0.25],[1,0.5],[1,0.75],[1,1],[0.75,1],[0.5,1],[0.25,1],[0,1],[0,0.75],[0,0.5],[0,0.25]];outlineConnect=0;html=1;whiteSpace=wrap;fontSize=12;fontStyle=0;container=1;pointerEvents=0;collapsible=0;recursiveResize=0;shape=mxgraph.aws4.group;grIcon=mxgraph.aws4.group_security_group;grStroke=0;strokeColor=#d6b656;fillColor=#fff2cc;verticalAlign=top;align=left;spacingLeft=30;dashed=0;shadow=1;" parent="38KTvm5A0aAS51LX1xv1-1" vertex="1">
                    <mxGeometry x="880" y="680" width="200" height="80" as="geometry"/>
                </mxCell>
                <mxCell id="81" style="edgeStyle=orthogonalEdgeStyle;rounded=0;html=1;fontSize=12;exitX=0.5;exitY=1;exitDx=0;exitDy=0;exitPerimeter=0;" parent="38KTvm5A0aAS51LX1xv1-1" source="44" edge="1">
                    <mxGeometry relative="1" as="geometry">
                        <mxPoint x="160" y="525" as="targetPoint"/>
                        <Array as="points">
                            <mxPoint x="100" y="525"/>
                        </Array>
                    </mxGeometry>
                </mxCell>
                <mxCell id="82" style="edgeStyle=orthogonalEdgeStyle;rounded=0;html=1;fontSize=12;exitX=0.5;exitY=1;exitDx=0;exitDy=0;exitPerimeter=0;" parent="38KTvm5A0aAS51LX1xv1-1" source="44" target="69" edge="1">
                    <mxGeometry relative="1" as="geometry">
                        <mxPoint x="150" y="730" as="targetPoint"/>
                        <Array as="points">
                            <mxPoint x="100" y="725"/>
                        </Array>
                    </mxGeometry>
                </mxCell>
                <mxCell id="84" style="edgeStyle=orthogonalEdgeStyle;rounded=0;html=1;entryX=0;entryY=0.5;entryDx=0;entryDy=0;fontSize=12;exitX=0.5;exitY=0;exitDx=0;exitDy=0;exitPerimeter=0;" parent="38KTvm5A0aAS51LX1xv1-1" source="44" target="49" edge="1">
                    <mxGeometry relative="1" as="geometry"/>
                </mxCell>
                <mxCell id="90" value="&lt;font style=&quot;font-size: 10px&quot;&gt;Route Table&lt;/font&gt;" style="outlineConnect=0;dashed=0;verticalLabelPosition=bottom;verticalAlign=top;align=center;html=1;shape=mxgraph.aws3.route_table;fillColor=#F58536;gradientColor=none;shadow=1;fontSize=12;" parent="38KTvm5A0aAS51LX1xv1-1" vertex="1">
                    <mxGeometry x="790" y="116" width="30" height="25" as="geometry"/>
                </mxCell>
                <mxCell id="91" value="&lt;font style=&quot;font-size: 10px&quot;&gt;Route Table&lt;/font&gt;" style="outlineConnect=0;dashed=0;verticalLabelPosition=bottom;verticalAlign=top;align=center;html=1;shape=mxgraph.aws3.route_table;fillColor=#F58536;gradientColor=none;shadow=1;fontSize=12;" parent="38KTvm5A0aAS51LX1xv1-1" vertex="1">
                    <mxGeometry x="790" y="316" width="30" height="25" as="geometry"/>
                </mxCell>
                <mxCell id="92" value="&lt;font style=&quot;font-size: 10px&quot;&gt;Route Table&lt;/font&gt;" style="outlineConnect=0;dashed=0;verticalLabelPosition=bottom;verticalAlign=top;align=center;html=1;shape=mxgraph.aws3.route_table;fillColor=#F58536;gradientColor=none;shadow=1;fontSize=12;" parent="38KTvm5A0aAS51LX1xv1-1" vertex="1">
                    <mxGeometry x="790" y="516" width="30" height="23" as="geometry"/>
                </mxCell>
                <mxCell id="93" value="&lt;font style=&quot;font-size: 10px&quot;&gt;Route Table&lt;/font&gt;" style="outlineConnect=0;dashed=0;verticalLabelPosition=bottom;verticalAlign=top;align=center;html=1;shape=mxgraph.aws3.route_table;fillColor=#F58536;gradientColor=none;shadow=1;fontSize=12;" parent="38KTvm5A0aAS51LX1xv1-1" vertex="1">
                    <mxGeometry x="790" y="716" width="30" height="25" as="geometry"/>
                </mxCell>
                <mxCell id="94" value="Main Route&lt;br&gt;Table" style="outlineConnect=0;dashed=0;verticalLabelPosition=bottom;verticalAlign=top;align=center;html=1;shape=mxgraph.aws3.route_table;fillColor=#F58536;gradientColor=none;shadow=1;fontSize=12;" parent="38KTvm5A0aAS51LX1xv1-1" vertex="1">
                    <mxGeometry x="40" y="40" width="40" height="40" as="geometry"/>
                </mxCell>
                <mxCell id="43" style="edgeStyle=none;html=1;entryX=0;entryY=0.5;entryDx=0;entryDy=0;entryPerimeter=0;fontSize=12;" parent="1" source="42" target="14" edge="1">
                    <mxGeometry relative="1" as="geometry"/>
                </mxCell>
                <mxCell id="42" value="&lt;font style=&quot;font-size: 12px&quot;&gt;Internet&lt;/font&gt;" style="aspect=fixed;perimeter=ellipsePerimeter;html=1;align=center;shadow=0;dashed=0;spacingTop=3;image;image=img/lib/active_directory/internet_cloud.svg;fontSize=10;" parent="1" vertex="1">
                    <mxGeometry x="-67" y="664.25" width="50" height="31.5" as="geometry"/>
                </mxCell>
                <mxCell id="83" style="edgeStyle=orthogonalEdgeStyle;rounded=0;html=1;fontSize=12;" parent="1" source="44" edge="1">
                    <mxGeometry relative="1" as="geometry">
                        <mxPoint x="100" y="680" as="targetPoint"/>
                    </mxGeometry>
                </mxCell>
                <mxCell id="95" value="&lt;font style=&quot;font-size: 24px&quot;&gt;&lt;b&gt;Ideal VPC Network&lt;/b&gt;&lt;/font&gt;" style="text;html=1;strokeColor=none;fillColor=none;align=left;verticalAlign=middle;whiteSpace=wrap;rounded=0;shadow=1;fontSize=10;" parent="1" vertex="1">
                    <mxGeometry x="40" y="180" width="290" height="50" as="geometry"/>
                </mxCell>
                <mxCell id="97" value="&lt;b&gt;&lt;font style=&quot;font-size: 18px&quot;&gt;Environment&lt;/font&gt;&lt;/b&gt;" style="text;html=1;strokeColor=none;fillColor=none;align=center;verticalAlign=middle;whiteSpace=wrap;rounded=0;" vertex="1" parent="1">
                    <mxGeometry x="40" y="240" width="140" height="40" as="geometry"/>
                </mxCell>
            </root>
        </mxGraphModel>
    </diagram>
</mxfile>